<svg xmlns="http://www.w3.org/2000/svg" version="1.1" xmlns:xlink="http://www.w3.org/1999/xlink" xmlns:svgjs="http://svgjs.dev/svgjs" width="1500" height="753" viewBox="0 0 1500 753"><g transform="matrix(1,0,0,1,-0.9090909090909918,0.8808576622865303)"><svg viewBox="0 0 396 199" data-background-color="#ffffff" preserveAspectRatio="xMidYMid meet" height="753" width="1500" xmlns="http://www.w3.org/2000/svg" xmlns:xlink="http://www.w3.org/1999/xlink"><g id="tight-bounds" transform="matrix(1,0,0,1,0.2400000000000091,-0.23278974076363568)"><svg viewBox="0 0 395.52 199.46557948152727" height="199.46557948152727" width="395.52"><g><svg viewBox="0 0 395.52 199.46557948152727" height="199.46557948152727" width="395.52"><g transform="matrix(1,0,0,1,0,147.26953852589588)"><svg viewBox="0 0 395.52 52.196040955631396" height="52.196040955631396" width="395.52"><g id="textblocktransform"><svg viewBox="0 0 395.52 52.196040955631396" height="52.196040955631396" width="395.52" id="textblock"><g><svg viewBox="0 0 395.52 52.196040955631396" height="52.196040955631396" width="395.52"><g transform="matrix(1,0,0,1,0,0)"><svg width="395.52" viewBox="2.7 -38.6 393.46999999999997 52.2" height="52.196040955631396" data-palette-color="#556970"><g class="wordmark-text-0" data-fill-palette-color="primary" id="text-0"><path d="M31.83-4.48Q26.75 0.5 19.75 0.5 12.75 0.5 7.73-4.48 2.7-9.45 2.7-17.53 2.7-25.6 7.75-30.68 12.8-35.75 19.75-35.75 26.7-35.75 31.8-30.68 36.9-25.6 36.9-17.53 36.9-9.45 31.83-4.48ZM8.15-17.53Q8.15-11.6 11.28-7.55 14.4-3.5 19.78-3.5 25.15-3.5 28.25-7.55 31.35-11.6 31.35-17.53 31.35-23.45 28.25-27.58 25.15-31.7 19.73-31.7 14.3-31.7 11.23-27.58 8.15-23.45 8.15-17.53ZM87.45-2.15L87.45 0 74.3 0 74.3-2.15 78.3-3.8 78.3-15.75Q78.3-18.7 77.32-20.15 76.35-21.6 73.8-21.6L73.8-21.6Q69.8-21.6 66.95-18.75L66.95-18.75Q67.1-18.15 67.1-17.5L67.1-17.5 67.1-3.8 71.55-2.15 71.55 0 58.4 0 58.4-2.15 62.4-3.8 62.4-15.75Q62.4-18.7 61.42-20.15 60.45-21.6 57.9-21.6L57.9-21.6Q53.8-21.6 50.55-18.35L50.55-18.35 50.55-3.8 54.8-2.15 54.8 0 41.65 0 41.65-2.15 45.85-3.8 45.85-21.65 41.65-21.65 41.65-24.65Q43.6-25.6 46.1-25.6 48.6-25.6 49.52-24.5 50.45-23.4 50.55-21.2L50.55-21.2Q51.25-22.1 52.65-23.25L52.65-23.25Q55.6-25.6 59.3-25.6L59.3-25.6Q64.8-25.6 66.5-21.2L66.5-21.2Q70.15-25.6 75.2-25.6L75.2-25.6Q79.1-25.6 81.05-23.43 83-21.25 83-17.5L83-17.5 83-3.8 87.45-2.15ZM103.55-2.15L103.55 0 90.4 0 90.4-2.15 94.59-3.8 94.59-21.65 90.4-21.65 90.4-24.65Q92.34-25.6 94.92-25.6 97.5-25.6 98.4-24.38 99.3-23.15 99.3-20.65L99.3-20.65 99.3-3.8 103.55-2.15ZM99.5-31.35Q98.34-30.2 96.7-30.2 95.05-30.2 93.9-31.35 92.75-32.5 92.75-34.15 92.75-35.8 93.9-36.95 95.05-38.1 96.7-38.1 98.34-38.1 99.5-36.95 100.65-35.8 100.65-34.15 100.65-32.5 99.5-31.35ZM119.84 0.5L119.84 0.5Q114.29 0.5 110.72-2.75 107.14-6 107.14-12.15L107.14-12.15Q107.14-15.55 108.49-18.23 109.84-20.9 112.04-22.45L112.04-22.45Q116.59-25.6 121.99-25.6L121.99-25.6Q123.64-25.6 125.24-25.2 126.84-24.8 127.64-24.4L127.64-24.4 128.44-23.95 128.44-18.05 125.39-18.05 124.69-21.1Q123.99-21.65 121.99-21.65L121.99-21.65Q117.69-21.65 114.84-19.05 111.99-16.45 111.99-12.5 111.99-8.55 114.47-5.98 116.94-3.4 121.04-3.4L121.04-3.4Q123.04-3.4 124.77-3.83 126.49-4.25 127.19-4.7L127.19-4.7 127.89-5.1 129.34-2.5Q129.19-2.4 128.92-2.18 128.64-1.95 127.74-1.45 126.84-0.95 125.84-0.55L125.84-0.55Q123.14 0.5 119.84 0.5ZM151.74-23.6L151.74-17.85 148.59-17.85 147.89-20.35Q146.59-21.6 143.89-21.6 141.19-21.6 139.72-20.9 138.24-20.2 138.24-19.03 138.24-17.85 139.34-16.82 140.44-15.8 141.59-15.3 142.74-14.8 145.69-13.8 148.64-12.8 150.52-11.15 152.39-9.5 152.39-6.8L152.39-6.8Q152.39-3.2 149.77-1.33 147.14 0.55 143.77 0.55 140.39 0.55 137.97-0.3 135.54-1.15 134.49-2L134.49-2 133.49-2.85 133.49-8.2 136.49-8.2 137.54-5.1Q137.59-4.95 138.34-4.6L138.34-4.6Q140.69-3.4 143.04-3.4 145.39-3.4 146.64-4.13 147.89-4.85 147.89-6.18 147.89-7.5 146.49-8.7 145.09-9.9 141.81-10.88 138.54-11.85 136.31-13.73 134.09-15.6 134.09-18.1L134.09-18.1Q134.09-21.85 136.72-23.73 139.34-25.6 143.49-25.6L143.49-25.6Q145.54-25.6 147.59-25.1 149.64-24.6 150.69-24.1L150.69-24.1 151.74-23.6Z" fill="#556970" data-fill-palette-color="primary"></path><path d="M204.34-2.2L204.34 0 190.74 0 190.74-2.2 194.84-3.85 191.29-12.7 178.29-12.7 174.74-3.85 178.74-2.2 178.74 0 165.64 0 165.64-2.2 169.74-3.85 182.04-35.3 187.19-35.3 199.99-3.85 204.34-2.2ZM179.59-16.1L189.99-16.1 184.69-30.15 179.59-16.1ZM235.34-2.15L235.34 0 222.19 0 222.19-2.15 226.19-3.8 226.19-15.75Q226.19-18.7 225.21-20.15 224.23-21.6 221.69-21.6L221.69-21.6Q217.59-21.6 214.34-18.35L214.34-18.35 214.34-3.8 218.59-2.15 218.59 0 205.44 0 205.44-2.15 209.64-3.8 209.64-21.65 205.44-21.65 205.44-24.65Q207.39-25.6 209.89-25.6 212.39-25.6 213.31-24.5 214.24-23.4 214.34-21.2L214.34-21.2Q215.04-22.1 216.44-23.25L216.44-23.25Q219.39-25.6 223.19-25.6 226.98-25.6 228.94-23.43 230.89-21.25 230.89-17.5L230.89-17.5 230.89-3.8 235.34-2.15ZM259.03-3.4L263.23-3.4 263.23-0.4Q261.28 0.55 258.93 0.55 256.58 0.55 255.56-0.35 254.53-1.25 254.38-2.95L254.38-2.95Q251.63 0.55 247.16 0.55 242.68 0.55 240.38-1.25 238.08-3.05 238.08-6.3L238.08-6.3Q238.08-12.55 246.78-13.5L246.78-13.5 254.33-14.3 254.33-15.75Q254.33-18.65 253.13-20.15 251.93-21.65 249.33-21.65L249.33-21.65Q244.53-21.65 241.53-20.6L241.53-20.6 240.53-20.25 239.63-23.45Q241.03-24.25 243.88-24.93 246.73-25.6 249.18-25.6L249.18-25.6Q254.53-25.6 256.78-23.48 259.03-21.35 259.03-17.5L259.03-17.5 259.03-3.4ZM247.03-10.25Q245.13-10 244.01-9.1 242.88-8.2 242.88-6.68 242.88-5.15 244.11-4.28 245.33-3.4 247.53-3.4L247.53-3.4Q251.68-3.4 254.33-5.65L254.33-5.65 254.33-11.05 247.03-10.25ZM278.83-2.15L278.83 0 265.68 0 265.68-2.15 269.88-3.8 269.88-34.65 265.68-34.65 265.68-37.65Q267.63-38.6 270.2-38.6 272.78-38.6 273.68-37.38 274.58-36.15 274.58-33.65L274.58-33.65 274.58-3.8 278.83-2.15ZM280.18-22.75L280.18-24.95 293.18-24.95 293.18-22.75 289.78-21.55 296.28-5.1 302.28-21.55 298.88-22.75 298.88-24.95 311.38-24.95 311.38-22.75 307.38-21.45 296.18 5.3Q294.58 9.1 292.2 11.35 289.83 13.6 285.88 13.6L285.88 13.6Q284.08 13.6 282.7 13.05 281.33 12.5 280.88 12L280.88 12 280.43 11.45 281.78 8.7Q283.28 9.5 285.88 9.5L285.88 9.5Q290.38 9.5 292.78 3.1L292.78 3.1 293.93 0.05 284.18-21.45 280.18-22.75ZM320.98-10.95Q320.98-6.65 322.28-5.1 323.58-3.55 326.23-3.55 328.88-3.55 330.58-4.35L330.58-4.35 331.58-1.85Q331.38-1.6 331-1.2 330.63-0.8 329.13-0.13 327.63 0.55 325.83 0.55L325.83 0.55Q321.28 0.55 318.78-2.02 316.28-4.6 316.28-9.55L316.28-9.55 316.28-21.05 313.63-21.05 313.63-24 318.43-28.8 320.98-28.8 320.98-25 329.38-25 329.38-21.05 320.98-21.05 320.98-10.95ZM347.32-2.15L347.32 0 334.17 0 334.17-2.15 338.37-3.8 338.37-21.65 334.17-21.65 334.17-24.65Q336.12-25.6 338.7-25.6 341.27-25.6 342.17-24.38 343.07-23.15 343.07-20.65L343.07-20.65 343.07-3.8 347.32-2.15ZM343.27-31.35Q342.12-30.2 340.47-30.2 338.82-30.2 337.67-31.35 336.52-32.5 336.52-34.15 336.52-35.8 337.67-36.95 338.82-38.1 340.47-38.1 342.12-38.1 343.27-36.95 344.42-35.8 344.42-34.15 344.42-32.5 343.27-31.35ZM363.62 0.5L363.62 0.5Q358.07 0.5 354.5-2.75 350.92-6 350.92-12.15L350.92-12.15Q350.92-15.55 352.27-18.23 353.62-20.9 355.82-22.45L355.82-22.45Q360.37-25.6 365.77-25.6L365.77-25.6Q367.42-25.6 369.02-25.2 370.62-24.8 371.42-24.4L371.42-24.4 372.22-23.95 372.22-18.05 369.17-18.05 368.47-21.1Q367.77-21.65 365.77-21.65L365.77-21.65Q361.47-21.65 358.62-19.05 355.77-16.45 355.77-12.5 355.77-8.55 358.25-5.98 360.72-3.4 364.82-3.4L364.82-3.4Q366.82-3.4 368.55-3.83 370.27-4.25 370.97-4.7L370.97-4.7 371.67-5.1 373.12-2.5Q372.97-2.4 372.7-2.18 372.42-1.95 371.52-1.45 370.62-0.95 369.62-0.55L369.62-0.55Q366.92 0.5 363.62 0.5ZM395.52-23.6L395.52-17.85 392.37-17.85 391.67-20.35Q390.37-21.6 387.67-21.6 384.97-21.6 383.49-20.9 382.02-20.2 382.02-19.03 382.02-17.85 383.12-16.82 384.22-15.8 385.37-15.3 386.52-14.8 389.47-13.8 392.42-12.8 394.29-11.15 396.17-9.5 396.17-6.8L396.17-6.8Q396.17-3.2 393.54-1.33 390.92 0.55 387.54 0.55 384.17 0.55 381.74-0.3 379.32-1.15 378.27-2L378.27-2 377.27-2.85 377.27-8.2 380.27-8.2 381.32-5.1Q381.37-4.95 382.12-4.6L382.12-4.6Q384.47-3.4 386.82-3.4 389.17-3.4 390.42-4.13 391.67-4.85 391.67-6.18 391.67-7.5 390.27-8.7 388.87-9.9 385.59-10.88 382.32-11.85 380.09-13.73 377.87-15.6 377.87-18.1L377.87-18.1Q377.87-21.85 380.49-23.73 383.12-25.6 387.27-25.6L387.27-25.6Q389.32-25.6 391.37-25.1 393.42-24.6 394.47-24.1L394.47-24.1 395.52-23.6Z" fill="#aba944" data-fill-palette-color="accent"></path></g></svg></g></svg></g></svg></g></svg></g><g transform="matrix(1,0,0,1,136.4474633016937,0)"><svg viewBox="0 0 122.62507339661262 122.62507339661262" height="122.62507339661262" width="122.62507339661262"><g><svg></svg></g><g id="icon-0"><svg viewBox="0 0 122.62507339661262 122.62507339661262" height="122.62507339661262" width="122.62507339661262"><g><path d="M0 61.313c0-33.862 27.451-61.313 61.313-61.313 33.862 0 61.313 27.451 61.312 61.313 0 33.862-27.451 61.313-61.312 61.312-33.862 0-61.313-27.451-61.313-61.312zM61.313 117.918c31.262 0 56.605-25.343 56.605-56.605 0-31.262-25.343-56.605-56.605-56.606-31.262 0-56.605 25.343-56.606 56.606 0 31.262 25.343 56.605 56.606 56.605z" data-fill-palette-color="accent" fill="#aba944" stroke="transparent"></path></g><g transform="matrix(1,0,0,1,40.84491480590815,29.928397103339012)"><svg viewBox="0 0 40.935243784796334 62.768279189934596" height="62.768279189934596" width="40.935243784796334"><g><svg xmlns="http://www.w3.org/2000/svg" xmlns:xlink="http://www.w3.org/1999/xlink" version="1.1" x="0" y="0" viewBox="4.223053042430175 0.07530656514216236 15.554580415912573 23.85070066666874" enable-background="new 0 0 24 24" xml:space="preserve" height="62.768279189934596" width="40.935243784796334" class="icon-dxe-0" data-fill-palette-color="accent" id="dxe-0"><g fill="#aba944" data-fill-palette-color="accent"><g fill="#aba944" data-fill-palette-color="accent"><g fill="#aba944" data-fill-palette-color="accent"><path d="M16.882 22.867H7.121A0.5 0.5 0 0 1 7.121 21.867H16.882A0.5 0.5 0 0 1 16.882 22.867" fill="#aba944" data-fill-palette-color="accent"></path><path d="M15.79 19.946H8.212A0.5 0.5 0 0 1 8.212 18.946H15.79A0.5 0.5 0 0 1 15.79 19.946" fill="#aba944" data-fill-palette-color="accent"></path><path d="M14.603 17.025H9.401A0.5 0.5 0 0 1 9.401 16.025H14.603A0.5 0.5 0 0 1 14.603 17.025" fill="#aba944" data-fill-palette-color="accent"></path></g><g fill="#aba944" data-fill-palette-color="accent"><path d="M16.882 22.867H7.121A0.5 0.5 0 0 1 7.121 21.867H16.882A0.5 0.5 0 0 1 16.882 22.867" fill="#aba944" data-fill-palette-color="accent"></path><path d="M15.79 19.946H8.212A0.5 0.5 0 0 1 8.212 18.946H15.79A0.5 0.5 0 0 1 15.79 19.946" fill="#aba944" data-fill-palette-color="accent"></path><path d="M14.603 17.025H9.401A0.5 0.5 0 0 1 9.401 16.025H14.603A0.5 0.5 0 0 1 14.603 17.025" fill="#aba944" data-fill-palette-color="accent"></path></g><g fill="#aba944" data-fill-palette-color="accent"><path d="M16.882 2.134H7.121A0.5 0.5 0 0 1 7.121 1.134H16.882A0.5 0.5 0 0 1 16.882 2.134" fill="#aba944" data-fill-palette-color="accent"></path><path d="M15.79 5.054H8.212A0.5 0.5 0 0 1 8.212 4.054H15.79A0.5 0.5 0 0 1 15.79 5.054" fill="#aba944" data-fill-palette-color="accent"></path><path d="M14.603 7.976H9.401A0.5 0.5 0 0 1 9.401 6.976H14.603A0.5 0.5 0 0 1 14.603 7.976" fill="#aba944" data-fill-palette-color="accent"></path></g><g fill="#aba944" data-fill-palette-color="accent"><path d="M16.882 2.134H7.121A0.5 0.5 0 0 1 7.121 1.134H16.882A0.5 0.5 0 0 1 16.882 2.134" fill="#aba944" data-fill-palette-color="accent"></path><path d="M15.79 5.054H8.212A0.5 0.5 0 0 1 8.212 4.054H15.79A0.5 0.5 0 0 1 15.79 5.054" fill="#aba944" data-fill-palette-color="accent"></path><path d="M14.603 7.976H9.401A0.5 0.5 0 0 1 9.401 6.976H14.603A0.5 0.5 0 0 1 14.603 7.976" fill="#aba944" data-fill-palette-color="accent"></path></g></g><g fill="#aba944" data-fill-palette-color="accent"><g fill="#aba944" data-fill-palette-color="accent"><path d="M4.884 23.926A0.5 0.5 0 0 1 4.391 23.499C3.353 16.49 7.287 13.851 11.768 11.556A0.5 0.5 0 0 1 12.223 12.447C7.921 14.65 4.438 16.991 5.379 23.353A0.498 0.498 0 0 1 4.884 23.926" fill="#aba944" data-fill-palette-color="accent"></path><path d="M11.812 12.594A0.5 0.5 0 0 1 11.585 11.649C15.834 9.473 19.57 6.994 18.631 0.648A0.5 0.5 0 0 1 19.052 0.081 0.497 0.497 0 0 1 19.619 0.502C20.655 7.497 16.443 10.284 12.04 12.54A0.5 0.5 0 0 1 11.812 12.594" fill="#aba944" data-fill-palette-color="accent"></path></g><path d="M9.744 11.229A0.5 0.5 0 0 1 9.478 11.153C6.636 9.374 3.488 6.555 4.384 0.502A0.498 0.498 0 1 1 5.372 0.648C4.566 6.096 7.264 8.586 10.01 10.305A0.5 0.5 0 0 1 9.744 11.229" fill="#aba944" data-fill-palette-color="accent"></path><path d="M19.125 23.926A0.498 0.498 0 0 1 18.63 23.353C19.437 17.906 16.738 15.415 13.992 13.696A0.5 0.5 0 0 1 14.523 12.849C17.367 14.629 20.515 17.449 19.618 23.5A0.5 0.5 0 0 1 19.125 23.926" fill="#aba944" data-fill-palette-color="accent"></path></g></g></svg></g></svg></g></svg></g></svg></g><g></g></svg></g><defs></defs></svg><rect width="395.52" height="199.46557948152727" fill="none" stroke="none" visibility="hidden"></rect></g></svg></g></svg>